<?xml version="1.0" standalone="no"?>
<!DOCTYPE svg PUBLIC "-//W3C//DTD SVG 20010904//EN"
 "http://www.w3.org/TR/2001/REC-SVG-20010904/DTD/svg10.dtd">
<svg version="1.0" xmlns="http://www.w3.org/2000/svg"
 width="1280.000000pt" height="853.000000pt" viewBox="0 0 1280.000000 853.000000"
 preserveAspectRatio="xMidYMid meet">

<g transform="translate(0.000000,853.000000) scale(0.100000,-0.100000)"
fill="#000000" stroke="none">
<path d="M3204 5768 c-82 -105 -167 -214 -188 -242 -103 -135 -139 -176 -152
-176 -8 0 -72 34 -141 75 -70 41 -130 75 -135 75 -11 0 -12 6 32 -330 68 -519
69 -524 59 -535 -6 -6 -68 49 -167 148 -86 86 -161 157 -165 157 -4 0 -7 -65
-7 -144 0 -90 -4 -147 -10 -151 -6 -4 -177 28 -380 71 -204 42 -373 75 -376
72 -5 -6 13 -89 96 -443 60 -253 75 -324 68 -330 -6 -6 -147 -40 -298 -71 -41
-9 -81 -19 -89 -23 -16 -10 -58 23 439 -340 212 -155 432 -315 488 -357 l104
-76 -6 -42 c-3 -22 -20 -148 -38 -278 -18 -130 -29 -240 -26 -244 4 -3 65 19
135 51 70 31 214 95 318 142 105 47 262 118 350 158 88 40 177 80 198 88 l37
16 0 392 c0 216 -2 390 -4 388 -2 -2 -18 -58 -35 -124 -55 -210 -93 -340 -104
-353 -7 -9 -74 -12 -296 -10 -266 3 -286 4 -289 21 -4 18 8 48 151 377 163
378 349 806 386 890 21 47 71 163 112 258 40 94 79 172 85 172 7 0 28 -37 47
-82 19 -46 87 -202 150 -348 63 -146 190 -438 281 -650 92 -212 171 -394 176
-405 33 -71 90 -207 90 -215 0 -6 -92 -10 -233 -10 -210 0 -235 -2 -249 -17
-29 -34 -167 -309 -160 -319 4 -6 171 -84 372 -174 624 -279 580 -261 580
-242 0 9 -16 138 -37 286 l-37 269 30 24 c26 21 172 129 364 268 616 448 654
477 639 485 -8 5 -59 18 -114 29 -238 51 -275 62 -275 79 0 9 39 185 86 390
47 205 84 375 83 376 -2 2 -170 -32 -374 -75 -203 -43 -376 -76 -382 -74 -10
3 -13 43 -13 151 0 81 -4 144 -9 142 -5 -1 -80 -72 -166 -156 -91 -88 -161
-150 -167 -144 -5 5 -2 59 7 128 37 273 66 504 75 574 5 41 12 97 16 124 4 29
3 47 -2 44 -5 -3 -67 -40 -137 -82 -70 -43 -136 -76 -145 -74 -9 2 -122 138
-250 303 -128 165 -237 301 -241 303 -4 1 -75 -84 -157 -190z"/>
<path d="M5770 4095 c0 -783 3 -1185 10 -1185 7 0 10 402 10 1185 0 783 -3
1185 -10 1185 -7 0 -10 -402 -10 -1185z"/>
<path d="M7084 4925 c-111 -24 -235 -103 -292 -187 -16 -24 -84 -185 -152
-358 -68 -173 -163 -416 -211 -540 -49 -124 -89 -231 -89 -237 0 -16 610 -18
710 -3 140 22 297 130 355 244 46 92 227 570 233 613 7 63 -5 106 -41 143 -61
63 -90 70 -298 70 -102 0 -188 3 -192 6 -3 4 5 36 19 73 14 36 37 94 50 129
l24 62 -28 -1 c-15 0 -54 -7 -88 -14z m186 -548 c0 -7 -42 -121 -94 -253 l-94
-239 -147 -3 c-116 -2 -146 0 -142 10 2 7 37 96 76 198 40 102 82 211 94 242
l22 58 143 0 c111 0 142 -3 142 -13z"/>
<path d="M8064 4650 c-69 -22 -164 -81 -217 -134 -47 -47 -70 -92 -152 -306
-61 -157 -107 -275 -204 -525 -17 -44 -31 -83 -31 -87 0 -5 76 -8 168 -8 l169
0 154 398 155 397 148 3 c139 2 148 1 141 -15 -12 -28 -83 -210 -115 -293 -16
-41 -52 -133 -80 -205 -28 -71 -64 -165 -80 -208 l-30 -77 172 2 172 3 155
398 154 397 144 0 c79 0 143 -3 143 -8 0 -7 -74 -200 -231 -602 -34 -85 -63
-163 -66 -172 -5 -17 7 -18 160 -18 120 0 167 3 175 13 5 6 48 111 95 232 87
224 268 688 306 783 l21 52 -683 -1 c-644 0 -685 -1 -743 -19z"/>
<path d="M9824 4650 c-108 -35 -219 -120 -269 -205 -20 -34 -141 -337 -223
-555 -44 -120 -17 -222 72 -264 64 -30 145 -38 346 -34 169 4 204 8 260 27
114 40 237 136 277 216 6 11 61 151 123 310 130 334 136 364 85 436 -56 79
-75 84 -360 86 -224 2 -256 0 -311 -17z m331 -277 c-4 -10 -20 -52 -35 -93
-16 -41 -47 -122 -70 -180 -23 -58 -51 -131 -63 -162 l-21 -58 -144 0 -144 0
5 23 c4 18 61 167 178 465 8 21 12 22 155 22 135 0 146 -1 139 -17z"/>
<path d="M10965 4656 c-109 -35 -223 -115 -273 -192 -17 -27 -66 -141 -110
-254 -43 -113 -113 -293 -156 -401 -42 -107 -76 -201 -76 -208 0 -8 43 -11
167 -9 l168 3 155 397 155 397 239 3 240 3 53 135 c29 74 53 136 53 138 0 1
-129 2 -287 1 -204 0 -300 -4 -328 -13z"/>
<path d="M6427 3413 c-16 -15 -5 -24 25 -21 41 4 50 28 11 28 -17 0 -33 -3
-36 -7z"/>
<path d="M7970 3405 c0 -10 10 -15 30 -15 20 0 30 5 30 15 0 10 -10 15 -30 15
-20 0 -30 -5 -30 -15z"/>
<path d="M9721 3403 c-11 -10 -36 -60 -56 -112 -42 -111 -39 -121 40 -121 60
0 97 22 113 70 11 29 10 30 -19 30 -22 0 -32 -6 -39 -25 -7 -18 -17 -25 -36
-25 -17 0 -24 4 -20 13 2 6 10 28 17 48 10 33 15 37 55 42 24 2 56 13 71 23
l28 19 -58 3 c-55 3 -57 4 -51 28 8 29 -13 33 -45 7z"/>
<path d="M10177 3413 c-15 -14 -6 -23 22 -23 16 0 31 6 35 15 4 11 -2 15 -23
15 -15 0 -31 -3 -34 -7z"/>
<path d="M6376 3279 c-20 -50 -36 -95 -36 -100 0 -5 13 -9 29 -9 26 0 30 5 59
83 16 45 33 90 37 100 6 14 2 17 -23 17 -28 0 -31 -5 -66 -91z"/>
<path d="M6784 3358 c-12 -5 -27 -22 -34 -37 -14 -29 -60 -143 -60 -148 0 -2
13 -3 29 -3 26 0 31 6 57 73 27 67 31 72 61 75 37 4 38 14 -6 -96 l-21 -53 32
3 c30 3 34 8 59 73 24 65 29 70 58 73 l31 3 -25 -67 c-14 -36 -25 -70 -25 -75
0 -5 12 -9 28 -9 25 0 30 7 62 92 19 51 37 96 38 100 5 12 -259 8 -284 -4z"/>
<path d="M7371 3354 c-23 -16 -30 -31 -71 -135 l-20 -50 32 3 c30 3 34 8 59
73 23 62 30 70 58 76 17 4 31 3 31 -1 0 -3 -11 -34 -25 -68 -31 -77 -31 -82 3
-82 25 0 30 6 55 75 26 70 30 75 58 75 16 0 29 -2 29 -4 0 -2 -11 -34 -25 -70
-14 -37 -25 -69 -25 -71 0 -3 13 -5 29 -5 29 0 31 2 99 188 7 20 -257 17 -287
-4z"/>
<path d="M7920 3278 c-19 -51 -36 -96 -38 -100 -2 -4 10 -8 26 -8 28 0 31 5
66 91 20 50 36 95 36 100 0 5 -12 9 -27 9 -26 0 -31 -7 -63 -92z"/>
<path d="M8323 3358 c-22 -11 -43 -46 -67 -116 -19 -54 -7 -72 49 -72 49 0 50
-2 35 -31 -12 -22 -3 -24 34 -8 23 11 33 29 83 157 4 10 -6 12 -42 11 -37 -2
-49 -7 -55 -23 -5 -14 -3 -24 6 -29 22 -12 7 -27 -27 -27 -21 0 -29 4 -25 13
2 6 10 29 17 49 l12 37 65 3 c57 3 66 6 73 26 8 22 7 22 -64 21 -40 0 -82 -5
-94 -11z"/>
<path d="M8783 3348 c-12 -13 -35 -57 -51 -98 -29 -72 -29 -75 -10 -78 34 -6
43 4 72 77 l28 71 44 0 c33 0 46 5 54 19 16 30 14 31 -53 31 -53 0 -67 -4 -84
-22z"/>
<path d="M9230 3352 c-18 -15 -80 -149 -80 -174 0 -5 13 -8 29 -8 22 0 30 6
35 25 5 20 13 25 36 25 34 0 36 -4 15 -53 -18 -45 -18 -47 -1 -47 30 0 58 39
96 134 22 55 40 103 40 108 0 4 -33 8 -74 8 -56 0 -79 -4 -96 -18z m90 -41 c0
-27 -15 -41 -41 -41 -30 0 -34 6 -23 34 7 17 64 23 64 7z"/>
<path d="M10122 3270 l-40 -100 31 0 c31 0 33 3 67 92 19 51 37 96 38 100 2 4
-10 8 -26 8 -28 0 -32 -5 -70 -100z"/>
<path d="M10517 3348 c-14 -13 -35 -49 -48 -81 -30 -74 -21 -91 47 -95 76 -5
106 16 139 99 34 87 27 99 -56 99 -46 0 -63 -5 -82 -22z m90 -40 c-2 -7 -10
-30 -18 -50 -11 -32 -18 -38 -41 -38 -33 0 -34 6 -12 60 14 34 20 40 46 40 20
0 29 -4 25 -12z"/>
<path d="M10993 3352 c-18 -13 -83 -154 -83 -178 0 -2 13 -4 29 -4 27 0 31 5
56 75 26 70 30 75 56 75 35 0 35 -4 4 -82 -14 -34 -25 -63 -25 -65 0 -2 13 -3
29 -3 27 0 31 6 69 100 l40 100 -76 0 c-57 0 -83 -5 -99 -18z"/>
</g>
</svg>
